# xmcd
#
# Track frame offsets: 
#        150
#        16570
#        30844
#        46834
#        65438
#        82798
#        100160
#        124961
#        147362
#        164101
#        179343
#
# Disc length: 2599 seconds
#
# Revision: 0
# Processed by: cddbd v1.5.2PL0 Copyright (c) Steve Scherf et al.
# Submitted via: ExactAudioCopy v1.3
#
DISCID=830a250b
DTITLE=Black Cat Bone - Black Cat Bone
DYEAR=2015
DGENRE=Blues Rock
TTITLE0=Old Man Bullfrog
TTITLE1=Now Come
TTITLE2=Damned and Saved
TTITLE3=No Matter What You Do
TTITLE4=Soldier and Sailor
TTITLE5=Dragon
TTITLE6=Maccarone
TTITLE7=Wasted
TTITLE8=Toothpick Mama
TTITLE9=Saddle Up
TTITLE10=Missing You
EXTD=
EXTT0=
EXTT1=
EXTT2=
EXTT3=
EXTT4=
EXTT5=
EXTT6=
EXTT7=
EXTT8=
EXTT9=
EXTT10=
PLAYORDER=
